<svg width="40" height="40" viewBox="0 0 40 40" fill="none" xmlns="http://www.w3.org/2000/svg">
<path d="M14.3559 20.1842H14.3543M6.72926 32.5642L19.1655 32.4998C19.9988 32.4998 20.7074 31.3609 20.7074 31.3609C21.117 30.6093 21.2417 29.3709 21.2417 29.3709V10.9975C21.2795 10.233 21.1741 9.77105 21.0209 9.0076C21.0209 9.0076 20.1127 7.8054 18.4488 7.8054L6.72926 7.8042C6.04263 8.01031 5.44074 8.43229 5.01291 9.00754C4.58508 9.58278 4.35411 10.2806 4.35426 10.9975V29.3709C4.35411 30.0878 4.58508 30.7856 5.01291 31.3609C5.44074 31.9361 6.04263 32.3581 6.72926 32.5642Z" stroke="white" stroke-width="2" stroke-linecap="round" stroke-linejoin="round"/>
</svg>
