<svg xmlns="http://www.w3.org/2000/svg" width="32" height="32" viewBox="0 0 32 32" fill="none">
<path d="M21.3333 5.33329H25.3333C26.0406 5.33329 26.7189 5.61424 27.219 6.11434C27.719 6.61444 28 7.29271 28 7.99996V9.33329M21.3333 26.6666H25.3333C26.0406 26.6666 26.7189 26.3857 27.219 25.8856C27.719 25.3855 28 24.7072 28 24V22.6666M12.0013 16H12M21.3333 16H28M28 16L25.3333 13.3333M28 16L25.3333 18.6666M5.9 25.904L13.9 28.304C14.2982 28.4235 14.7189 28.4483 15.1284 28.3763C15.538 28.3043 15.925 28.1375 16.2585 27.8893C16.5921 27.6411 16.8631 27.3183 17.0497 26.9467C17.2363 26.5751 17.3334 26.1651 17.3333 25.7493V6.25063C17.3334 5.83483 17.2363 5.42477 17.0497 5.0532C16.8631 4.68163 16.5921 4.35885 16.2585 4.11064C15.925 3.86243 15.538 3.69566 15.1284 3.62366C14.7189 3.55166 14.2982 3.57642 13.9 3.69596L5.9 6.09596C5.35069 6.26085 4.86918 6.59843 4.52692 7.05863C4.18465 7.51883 3.99987 8.07711 4 8.65063V23.3493C3.99987 23.9228 4.18465 24.4811 4.52692 24.9413C4.86918 25.4015 5.35069 25.7391 5.9 25.904Z" stroke="#007F3D" stroke-width="2" stroke-linecap="round" stroke-linejoin="round"/>
</svg>
