<svg width="40" height="40" viewBox="0 0 40 40" fill="none" xmlns="http://www.w3.org/2000/svg">
<path d="M26.6667 6.66665H31.6667C32.5507 6.66665 33.3986 7.01784 34.0237 7.64296C34.6488 8.26808 35 9.11592 35 9.99998V11.6666M26.6667 33.3333H31.6667C32.5507 33.3333 33.3986 32.9821 34.0237 32.357C34.6488 31.7319 35 30.884 35 30V28.3333M15.0017 20H15M26.6667 20H35M35 20L31.6667 16.6666M35 20L31.6667 23.3333M7.375 32.38L17.375 35.38C17.8728 35.5294 18.3987 35.5604 18.9105 35.4704C19.4224 35.3804 19.9062 35.1719 20.3232 34.8616C20.7402 34.5514 21.0788 34.1479 21.3121 33.6834C21.5454 33.219 21.6668 32.7064 21.6667 32.1866V7.81331C21.6668 7.29357 21.5454 6.78099 21.3121 6.31653C21.0788 5.85207 20.7402 5.4486 20.3232 5.13833C19.9062 4.82807 19.4224 4.61961 18.9105 4.52961C18.3987 4.4396 17.8728 4.47055 17.375 4.61998L7.375 7.61998C6.68837 7.82609 6.08648 8.24807 5.65865 8.82332C5.23082 9.39856 4.99984 10.0964 5 10.8133V29.1866C4.99984 29.9035 5.23082 30.6014 5.65865 31.1766C6.08648 31.7519 6.68837 32.1739 7.375 32.38Z" stroke="white" stroke-width="2" stroke-linecap="round" stroke-linejoin="round"/>
</svg>
